<svg width="1440" height="213" viewBox="0 0 1440 213" fill="none" xmlns="http://www.w3.org/2000/svg">
<path d="M-161.789 110.151C-136.904 65.4031 -49.9071 -18.1943 98.9964 5.39723C285.126 34.8867 509.095 181.013 627.726 129.077C746.358 77.1402 1007.66 8.91835 1240.32 59.5345C1426.45 100.027 1484.57 122.768 1490.36 129.077C1536.73 169.57 1584.55 240.52 1404.97 200.38C1180.49 150.204 828.685 27.8444 627.726 39.2881C426.768 50.7317 -123.95 220.626 -224.685 185.415C-305.272 157.246 -216.333 123.502 -161.789 110.151Z" stroke="black"/>
<path d="M1522.46 169.956C1525.1 136.512 1486.06 67.6651 1308.82 59.8224C1087.26 50.019 1011.36 191.931 675.682 122.771C340.003 53.6114 358.621 51.4479 157.37 63.0532C-3.63131 72.3375 -83.142 87.1277 -102.772 93.3623" stroke="black"/>
</svg>
