<svg width="1262" height="539" viewBox="0 0 1262 539" fill="none" xmlns="http://www.w3.org/2000/svg">
<path fill-rule="evenodd" clip-rule="evenodd" d="M176.403 193.967C170.792 190.137 166.263 184.814 164.915 177.85C161.033 157.787 189.848 154.709 197.89 163.205C205.932 171.702 212.047 197.081 205.571 200.72C202.988 202.171 196.617 202.019 189.643 200.038L200.506 225.484L178.227 231.454L176.403 193.967Z" fill="#EAD9C3"/>
<path fill-rule="evenodd" clip-rule="evenodd" d="M186.19 154.739C182.899 154.635 178.396 155.507 176.594 156.216C176.978 153.422 176.648 150.511 175.576 147.879C174.534 145.321 172.737 143.387 171 141.321C170.2 140.368 169.333 139.44 168.251 138.838C167.148 138.224 165.889 137.961 164.655 138.005C163.393 138.051 162.155 138.407 161.03 138.974C160.533 139.225 160.124 139.591 159.642 139.862C159.15 140.14 158.805 139.88 158.332 139.653C157.193 139.106 155.731 139.077 154.522 139.251C153.166 139.445 151.855 140.007 150.716 140.771C149.608 141.515 148.618 142.506 148 143.728C147.725 144.272 147.502 144.867 147.418 145.481C147.384 145.733 147.404 145.871 147.198 146.015C147.008 146.148 146.762 146.217 146.564 146.348C144.65 147.618 143.283 149.71 142.858 152.041C142.61 153.4 142.909 155.597 143.621 157.958C144.333 160.32 148.167 165.951 150.803 167.674C153.156 169.211 156.176 169.833 158.901 169.729C157.713 172.117 157.225 174.835 157.044 177.515C156.847 180.426 157.025 183.348 157.573 186.227C158.094 188.963 158.835 191.804 160.173 194.259C161.425 196.555 163.234 198.229 165.695 198.939C166.822 199.264 167.984 199.424 169.142 199.544C170.283 199.663 171.425 199.77 172.569 199.701C174.733 199.572 177.079 198.866 178.226 196.824C178.639 196.087 179.069 195.186 179.294 194.362C179.374 194.065 179.419 193.874 179.171 193.672C178.873 193.43 178.459 193.294 178.117 193.134C176.165 192.222 174.7 190.699 173.882 188.642C173.052 186.554 172.891 183.616 174.753 182.109C177.051 180.249 180.282 180.811 182.934 181.432C182.996 177.72 184.188 174.073 186.938 171.641C189.979 168.95 193.953 167.666 197.158 165.198C197.993 164.555 198.832 163.854 199.311 162.872C199.51 162.461 199.734 161.938 199.731 161.466C199.728 160.847 199.221 160.462 198.81 160.089C196.626 158.11 189.48 154.844 186.19 154.739Z" fill="#191847"/>
<path fill-rule="evenodd" clip-rule="evenodd" d="M183.308 309.032L218.15 430.829L243.571 520.6H262.112L235.099 309.032H183.308Z" fill="#DFAF72"/>
<path fill-rule="evenodd" clip-rule="evenodd" d="M173.99 309.032C173.184 371.808 170.436 406.047 169.59 411.751C168.744 417.454 155.949 453.737 131.207 520.6H150.414C181.913 456.457 199.497 420.174 203.165 411.751C206.833 403.328 218.153 369.088 235.204 309.032H173.99Z" fill="#FDC886"/>
<path fill-rule="evenodd" clip-rule="evenodd" d="M129.49 537.98L130.451 517.799H150.633C160.202 524.526 172.696 529.972 188.113 534.136V537.98H151.594L139.1 536.058V537.98H129.49Z" fill="#191847"/>
<path fill-rule="evenodd" clip-rule="evenodd" d="M240.97 537.98L241.931 517.799H262.112C271.682 524.526 284.175 529.972 299.593 534.136V537.98H263.073L250.58 536.058V537.98H240.97Z" fill="#191847"/>
<path fill-rule="evenodd" clip-rule="evenodd" d="M261.643 283.66L294.462 302.724C302.963 304.072 310.16 306.106 316.054 308.826C317.489 309.876 319.325 312.116 313.847 312.273C308.369 312.43 302.613 312.84 302.056 314.764C301.5 316.688 305.02 318.547 303.765 321.196C302.928 322.962 297.718 319.305 288.134 310.224L256.641 300.949L261.643 283.66ZM130.434 296.042L147.625 295.509C136.481 337.529 130.457 359.775 129.553 362.246C127.518 367.806 132.506 375.987 134.671 380.401C128.221 383.551 128.549 372.724 120.418 376.844C112.997 380.604 107.477 387.136 98.5806 382.095C97.4869 381.475 96.2283 379.04 98.9982 377.004C105.899 371.93 115.792 363.127 117.073 360.3C118.819 356.445 123.273 335.026 130.434 296.042Z" fill="#EAD9C3"/>
<path fill-rule="evenodd" clip-rule="evenodd" d="M188.507 215.689L198.291 210.439C218.557 242.979 245.546 273.162 285.703 295.595L279.649 312.031C245.603 299.385 213.917 290.485 197.278 265.435C191.694 257.028 190.103 226.637 188.507 215.689Z" fill="#DADADA"/>
<path fill-rule="evenodd" clip-rule="evenodd" d="M170.212 320.552C200.52 318.445 223.94 314.316 240.472 308.164C242.52 307.402 242.232 303.816 240.828 301.596C218.969 267.019 202.752 236.346 198.187 210.457C195.63 212.359 190.759 213.435 183.572 213.687C169.429 243.689 166.163 275.827 170.212 320.552Z" fill="#DFAF72"/>
<path fill-rule="evenodd" clip-rule="evenodd" d="M178.492 212.277L186.347 210.892C190.063 221.272 221.387 365.192 247.555 409.464L151.203 426.453C145.633 382.651 152.911 327.572 161.905 280.969C149.515 297.012 140.666 322.054 135.358 356.094L116.498 354.667C119.771 294.762 139.904 247.605 176.895 213.198C176.949 212.974 177.003 212.752 177.056 212.53L177.751 212.407C177.978 212.199 178.206 211.991 178.434 211.783L178.492 212.277Z" fill="#F7FBFF"/>
<path fill-rule="evenodd" clip-rule="evenodd" d="M1000.05 277.124C1002.12 276.873 1004.32 276.962 1006.24 277.774C1010.32 279.502 1011.48 284.31 1011.43 288.218C1011.37 292.425 1010.47 297.019 1013.68 300.408C1015.15 301.966 1016.99 303.159 1018.43 304.746C1019.98 306.441 1021.19 308.381 1022.09 310.465C1023.74 314.292 1024.55 318.792 1023.04 322.807C1021.72 326.341 1018.37 329.531 1019.1 333.55C1019.85 337.743 1024.09 340.948 1026.74 344.071C1029.74 347.605 1032.5 352.122 1032.95 356.757C1033.39 361.198 1031.45 365.69 1028.47 369.048C1022.53 375.757 1013.59 379.045 1004.58 379.025C1000.75 379.016 996.422 378.844 993.12 376.794C992.1 376.16 991.562 375.449 990.955 374.461C990.411 373.575 989.693 372.999 988.861 372.372C987.034 370.994 985.714 369.138 984.872 367.06C981.602 358.989 984.216 349.005 988.793 341.838C989.878 340.14 990.766 338.506 990.239 336.483C989.689 334.37 988.337 332.464 987.142 330.648C985.961 328.854 984.613 327.141 983.69 325.201C982.723 323.168 982.45 321.039 982.621 318.814C982.942 314.635 984.752 310.779 987.313 307.418C989.781 304.18 992.678 301.083 992.684 296.841C992.691 292.345 989.677 288.345 990.961 283.775C991.493 281.882 992.561 279.94 994.282 278.805C995.933 277.717 998.112 277.361 1000.05 277.124Z" fill="#DDE3E9"/>
<path fill-rule="evenodd" clip-rule="evenodd" d="M998.705 284.312C998.743 283.708 999.462 283.346 1000.03 283.503C1000.77 283.711 1000.76 284.404 1000.74 285.022C1000.68 286.921 1000.95 288.767 1001.41 290.609C1002.36 294.44 1004.12 297.97 1005.51 301.65C1006.91 305.327 1007.56 309.123 1006.74 313.014C1005.97 316.682 1004.76 320.255 1003.98 323.928C1003.28 327.166 1002.54 330.579 1003.6 333.809C1004.62 336.917 1006.87 339.448 1008.49 342.257C1011.84 348.071 1013.33 354.522 1013.53 361.16C1013.62 364.243 1013.54 367.354 1012.82 370.377C1012.41 372.118 1011.85 374.47 1010.36 375.672C1009.67 376.226 1008.49 376.418 1007.91 375.597C1007.36 374.827 1007.84 373.636 1008.01 372.815C1008.76 369.263 1008.91 365.634 1008.73 362.027C1008.56 358.534 1008.15 355.046 1007.04 351.71C1006.02 348.614 1004.46 345.833 1002.63 343.124C1000.77 340.364 998.831 337.598 998.061 334.328C997.278 331.006 997.914 327.626 998.764 324.368C999.664 320.922 1000.84 317.574 1002.06 314.221C1003.25 310.954 1003.67 307.863 1003.01 304.443C1001.72 297.688 998.253 291.347 998.705 284.312Z" fill="#C5CFD6"/>
<path fill-rule="evenodd" clip-rule="evenodd" d="M1054.55 285.322C1057.11 286.095 1059.65 287.343 1061.47 289.299C1065.34 293.46 1064.15 299.748 1062.01 304.341C1059.71 309.284 1056.23 314.253 1058.19 319.925C1059.1 322.532 1060.61 324.894 1061.47 327.521C1062.39 330.329 1062.78 333.253 1062.73 336.183C1062.64 341.565 1061.2 347.307 1057.3 351.272C1053.87 354.763 1048.26 356.802 1046.98 361.93C1045.64 367.279 1048.91 373.269 1050.36 378.337C1052.01 384.072 1052.85 390.846 1050.93 396.563C1049.09 402.041 1044.43 406.348 1039.16 408.775C1028.63 413.625 1016.4 412.878 1005.85 408.18C1001.36 406.185 996.373 403.734 993.587 399.597C992.726 398.319 992.472 397.199 992.284 395.715C992.116 394.385 991.579 393.331 990.936 392.158C989.523 389.581 988.959 386.702 989.073 383.807C989.516 372.567 997.874 362.115 1007.04 356.013C1009.21 354.568 1011.12 353.096 1011.58 350.429C1012.05 347.646 1011.48 344.691 1011.04 341.923C1010.6 339.188 1009.93 336.464 1009.88 333.69C1009.82 330.784 1010.63 328.126 1012.01 325.583C1014.6 320.807 1018.77 317.185 1023.55 314.539C1028.16 311.99 1033.2 309.829 1035.46 304.816C1037.85 299.503 1036.44 293.21 1040.36 288.47C1041.99 286.508 1044.27 284.765 1046.89 284.316C1049.41 283.885 1052.15 284.594 1054.55 285.322Z" fill="#DDE3E9"/>
<path fill-rule="evenodd" clip-rule="evenodd" d="M1049.34 294.108C1049.7 293.413 1050.73 293.36 1051.31 293.842C1052.07 294.476 1051.69 295.29 1051.34 296.011C1050.27 298.229 1049.63 300.559 1049.19 302.98C1048.29 308.014 1048.5 313.113 1048.19 318.199C1047.89 323.281 1046.66 328.118 1043.66 332.299C1040.83 336.241 1037.54 339.84 1034.69 343.778C1032.18 347.249 1029.52 350.906 1029.06 355.282C1028.62 359.495 1029.92 363.668 1030.34 367.841C1031.21 376.48 1029.56 384.896 1026.3 392.861C1024.79 396.56 1023.06 400.201 1020.64 403.406C1019.24 405.252 1017.35 407.748 1014.97 408.389C1013.88 408.685 1012.4 408.295 1012.15 407.02C1011.91 405.824 1013.1 404.662 1013.73 403.781C1016.48 399.966 1018.56 395.747 1020.24 391.382C1021.87 387.154 1023.22 382.808 1023.69 378.28C1024.11 374.079 1023.76 369.973 1023.04 365.809C1022.31 361.566 1021.5 357.278 1022.31 353.002C1023.14 348.659 1025.66 344.989 1028.37 341.575C1031.23 337.964 1034.36 334.615 1037.55 331.281C1040.65 328.032 1042.77 324.591 1043.8 320.199C1045.83 311.523 1045.11 302.203 1049.34 294.108Z" fill="#C5CFD6"/>
<path fill-rule="evenodd" clip-rule="evenodd" d="M975.588 317.235C979.835 317.235 983.57 319.48 986.143 322.666C989.155 326.395 989.763 330.949 990.986 335.393C991.595 337.605 992.641 339.8 994.476 341.303C996.144 342.67 998.262 342.943 1000.26 343.611C1004.25 344.945 1007.47 348.159 1008.75 352.082C1010.3 356.866 1008.65 361.691 1008.94 366.539C1009.2 370.992 1013.6 373.77 1017.14 375.904C1020.64 378.009 1023.78 379.979 1024.84 384.08C1025.95 388.428 1026.33 393.283 1024.78 397.579C1022.21 404.732 1014.68 407.882 1007.4 408.37C1000.8 408.813 992.497 408.117 987.539 403.339C984.572 400.479 983.497 396.48 983.631 392.5C983.713 390.026 984.205 387.575 984.841 385.184C985.291 383.489 985.9 381.801 986.073 380.05C986.534 375.391 982.215 374.496 978.539 373.217C973.868 371.591 970.597 368.521 968.323 364.243C966.205 360.259 965.317 355.788 966.586 351.402C967.235 349.163 968.411 347.131 970.006 345.403C970.708 344.643 971.697 344.008 972.331 343.209C972.923 342.463 972.794 341.496 972.59 340.622C971.647 336.585 968.711 333.241 967.661 329.211C966.712 325.574 967.273 321.046 970.608 318.699C972.05 317.685 973.827 317.246 975.588 317.235Z" fill="#C5CFD6"/>
<path fill-rule="evenodd" clip-rule="evenodd" d="M981.376 327.755C985.878 332.536 987.101 339.023 987.46 345.311C987.661 348.837 987.452 352.556 988.491 355.976C989.38 358.903 991.464 361.14 993.612 363.255C997.936 367.512 1002.76 371.84 1004.02 378C1004.76 381.616 1004.26 385.35 1005.29 388.926C1006.22 392.176 1007.86 395.37 1009.86 398.114C1011.47 400.324 1013.56 402.017 1015.32 404.077C1015.86 404.706 1016.62 405.632 1016.4 406.519C1016.14 407.559 1014.82 407.888 1013.87 407.725C1011.68 407.344 1009.83 405.252 1008.39 403.731C1006.29 401.507 1004.5 399.115 1003.05 396.432C1001.44 393.452 1000.14 390.29 999.59 386.947C999.015 383.479 999.301 379.864 997.988 376.536C995.778 370.935 990.418 367.63 986.543 363.265C981.715 357.825 982.435 351.056 982.929 344.365C983.201 340.688 983.471 336.535 981.607 333.178C980.896 331.897 979.31 330.702 979.004 329.245C978.724 327.911 980.253 326.562 981.376 327.755Z" fill="#AFB9C5"/>
<path fill-rule="evenodd" clip-rule="evenodd" d="M986.177 406.328C986.177 433.672 990.652 448 1014.28 448C1037.91 448 1042.38 433.672 1042.38 406.328H986.177Z" fill="#FDC886"/>
<path fill-rule="evenodd" clip-rule="evenodd" d="M1131.66 335.15C1137.95 350.259 1148.63 360.757 1154.29 376.467C1157.65 385.784 1159.05 395.914 1159.13 406.289C1159.18 411.924 1159.08 417.563 1159.05 423.198C1159.03 428.694 1158.88 434.154 1158.42 439.615C1157.96 445.104 1157.44 450.528 1157.21 456.051C1157.03 460.354 1156.95 465.36 1155.51 469.285C1154.36 472.407 1151.45 472.864 1150.67 469.078C1150.24 466.974 1150.3 464.624 1150.34 462.461C1150.41 459.685 1150.56 456.914 1150.65 454.139C1150.97 443.005 1150.55 431.868 1150.77 420.729C1150.99 409.846 1152.37 398.975 1150.84 388.164C1149.58 379.237 1146.37 371.571 1142.68 364.221C1139.13 357.151 1135.26 350.252 1132.86 342.209C1132.18 339.899 1131.64 337.505 1131.39 335.022C1131.5 334.969 1131.59 335.012 1131.66 335.15Z" fill="#C1DEE2"/>
<path fill-rule="evenodd" clip-rule="evenodd" d="M1129.95 364.958C1131.19 365.868 1131.89 367.198 1132.73 368.51C1133.77 370.141 1135 371.614 1136.05 373.247C1138.23 376.651 1140.15 380.264 1142.14 383.805C1145.91 390.528 1148.78 397.693 1150.2 405.47C1151.67 413.53 1152.06 421.85 1152.68 430.03C1153.34 438.7 1154 447.433 1154.08 456.137C1154.12 460.036 1154.33 464.176 1153.87 468.047C1153.58 470.458 1152.5 472.512 1150.08 472.493C1144.93 472.451 1142.51 466.682 1141.5 461.95C1140.01 454.982 1139.72 447.581 1139.95 440.455C1140.24 431.863 1141.71 423.4 1142.35 414.841C1143.02 405.78 1142.64 396.879 1139.56 388.348C1138.01 384.037 1136.2 379.829 1134.58 375.546C1133.89 373.723 1133.32 371.85 1132.39 370.152C1131.35 368.263 1130.06 366.548 1129.25 364.514C1129.48 364.662 1129.71 364.81 1129.95 364.958Z" fill="#89C5CC"/>
<path fill-rule="evenodd" clip-rule="evenodd" d="M1189.27 346.89C1189.43 346.766 1189.59 346.642 1189.75 346.518C1189.29 348.456 1188.47 350.031 1187.84 351.802C1187.28 353.395 1186.99 355.198 1186.61 356.939C1185.72 361.028 1184.69 365.026 1183.84 369.15C1182.17 377.311 1182.49 386.103 1183.59 395.157C1184.62 403.71 1186.25 412.25 1187.03 420.801C1187.68 427.893 1187.96 435.206 1187.34 441.972C1186.92 446.567 1185.55 452.053 1181.81 451.589C1180.05 451.371 1179.13 449.228 1178.76 446.809C1178.17 442.922 1178.04 438.837 1177.81 434.972C1177.29 426.347 1177.19 417.748 1177.09 409.212C1176.99 401.158 1176.73 392.944 1177.26 385.093C1177.77 377.517 1179.38 370.69 1181.67 364.392C1182.88 361.073 1184.03 357.677 1185.39 354.514C1186.04 352.997 1186.84 351.657 1187.49 350.141C1188.01 348.921 1188.43 347.67 1189.27 346.89Z" fill="#C1DEE2"/>
<path fill-rule="evenodd" clip-rule="evenodd" d="M1131.54 389.926C1132.22 388.77 1133.72 392.584 1133.94 393.064C1133.85 392.825 1133.75 392.587 1133.65 392.349C1135.01 394.622 1136.24 396.989 1137.01 399.596C1137.77 402.177 1138.43 404.809 1139.14 407.408C1140.48 412.285 1142.21 417.023 1143.42 421.943C1144.6 426.737 1144.9 431.451 1144.61 436.41C1144.32 441.565 1144.14 446.798 1144.48 451.95C1144.65 454.41 1145.44 456.702 1145.98 459.071C1146.52 461.442 1146.95 463.844 1147.59 466.186C1147.74 465.881 1147.76 466.901 1147.76 466.978C1147.75 467.563 1147.67 468.054 1147.49 468.609C1147.01 470.035 1146.11 471.247 1144.75 471.64C1142.29 472.351 1140.01 470.088 1139.21 467.698C1138.08 464.269 1137.45 460.479 1136.91 456.875C1136.41 453.57 1136.29 450.245 1136.44 446.894C1136.73 440.287 1137.91 433.766 1138.23 427.16C1138.58 419.969 1137.17 413.212 1135.99 406.212C1135.42 402.839 1134.88 399.498 1133.78 396.284C1133.33 394.983 1132.74 393.835 1132.13 392.633C1131.78 391.949 1131.08 390.73 1131.54 389.926Z" fill="#C1DEE2"/>
<path fill-rule="evenodd" clip-rule="evenodd" d="M1151.49 378.693C1151.21 386.932 1150.73 395.108 1149.64 403.26C1148.53 411.579 1147.26 419.869 1146.19 428.195C1145.15 436.3 1144.07 444.54 1144.21 452.758C1144.32 458.811 1143.33 469.051 1149.97 472.039C1156.7 475.064 1158.15 462.144 1158.59 457.879C1159.44 449.697 1159.16 441.429 1158.75 433.202C1158.33 424.759 1157.63 416.358 1156.75 407.946C1155.78 398.601 1155.02 389.215 1154.41 379.844C1154.11 375.209 1154.03 370.582 1154.12 365.945C1154.2 361.57 1154.03 357.15 1152.49 352.996C1152.41 353.056 1152.33 353.115 1152.25 353.173" fill="#69A1AC"/>
<path fill-rule="evenodd" clip-rule="evenodd" d="M1186.25 404.794C1185.04 406.578 1183.82 408.344 1182.67 410.234C1180.63 413.615 1178.78 417.375 1178.22 422.209C1177.06 432.325 1177.99 443.252 1178.22 453.678C1178.26 455.808 1178 457.875 1178.83 459.902C1179.58 461.741 1180.99 463.142 1182.33 463.135C1185.2 463.118 1184.76 456.005 1184.77 452.874C1184.78 447.386 1184.17 441.843 1184.22 436.36C1184.27 430.929 1184.6 425.482 1185.38 420.323C1186.17 415.102 1187.32 410.088 1188.84 405.409C1189.05 404.76 1190.57 399.742 1189.14 400.607" fill="#89C5CC"/>
<path fill-rule="evenodd" clip-rule="evenodd" d="M1173.56 350.837C1171.68 350.837 1171.69 360.358 1171.63 361.581C1171.43 365.994 1171.47 370.408 1171.34 374.822C1171.06 384.455 1170.71 394.172 1169.28 403.693C1168.51 408.819 1167.62 413.922 1166.66 419.009C1165.69 424.11 1164.4 429.206 1163.77 434.372C1163.16 439.338 1163.5 444.402 1163.59 449.393C1163.67 454.414 1163.82 459.445 1164.47 464.422C1164.63 465.65 1164.82 466.874 1165.02 468.095C1165.19 469.113 1165.09 470.375 1165.37 471.342C1165.83 472.891 1167.78 473.397 1169.09 473.155C1172.65 472.499 1174.92 467.986 1176.13 464.689C1177.68 460.479 1178.5 455.913 1179.31 451.476C1180.23 446.449 1180.77 441.346 1181.02 436.229C1181.54 425.828 1180.88 415.417 1180.14 405.049C1179.73 399.284 1179.26 393.544 1178.54 387.814C1177.81 382.108 1176.89 376.428 1176.29 370.706C1175.85 366.548 1175.42 362.384 1175.13 358.209C1175.07 357.214 1175.01 350.837 1173.56 350.837Z" fill="#69A1AC"/>
<path fill-rule="evenodd" clip-rule="evenodd" d="M1171.2 420.043C1170.89 410.047 1166.92 366.14 1166.02 354.053C1165.79 351.027 1163.61 338.43 1163.33 335C1162.57 335.969 1162.63 351.06 1162.64 354.527C1162.65 357.957 1162.23 361.33 1162.01 364.741C1161.79 368.222 1156.7 413.177 1156.04 416.522C1154.73 423.176 1153.85 430.004 1153.17 436.808C1152.51 443.439 1151.49 450.435 1152.37 457.101C1152.57 458.636 1152.89 460.146 1153.42 461.555C1153.98 463.079 1154.37 464.487 1154.83 466.081C1155.56 468.648 1156.88 470.902 1158.91 471.961C1163.07 474.135 1165.31 469.215 1166.44 464.932C1168.25 458.092 1169.41 451.14 1169.96 443.957C1170.56 436.009 1171.45 428.045 1171.2 420.043Z" fill="#89C5CC"/>
<path d="M1190.46 449.457H1128.54C1127.75 449.457 1127.12 450.102 1127.12 450.897V513.525C1127.12 514.32 1127.75 514.965 1128.54 514.965H1190.46C1191.25 514.965 1191.88 514.32 1191.88 513.525V450.897C1191.88 450.102 1191.25 449.457 1190.46 449.457Z" fill="#FDC886"/>
<path d="M1125.69 456.656H1121.42C1120.64 456.656 1120 457.301 1120 458.096V536.56C1120 537.355 1120.64 538 1121.42 538H1125.69C1126.48 538 1127.12 537.355 1127.12 536.56V458.096C1127.12 457.301 1126.48 456.656 1125.69 456.656Z" fill="black"/>
<path d="M1161.28 456.656H1157.01C1156.22 456.656 1155.59 457.301 1155.59 458.096V536.56C1155.59 537.355 1156.22 538 1157.01 538H1161.28C1162.07 538 1162.7 537.355 1162.7 536.56V458.096C1162.7 457.301 1162.07 456.656 1161.28 456.656Z" fill="black"/>
<path d="M1197.58 456.656H1193.31C1192.52 456.656 1191.88 457.301 1191.88 458.096V536.56C1191.88 537.355 1192.52 538 1193.31 538H1197.58C1198.36 538 1199 537.355 1199 536.56V458.096C1199 457.301 1198.36 456.656 1197.58 456.656Z" fill="black"/>
<path fill-rule="evenodd" clip-rule="evenodd" d="M973.429 448H1055.57C1061.88 448 1067 453.199 1067 459.613V526.387C1067 532.801 1061.88 538 1055.57 538H973.429C967.117 538 962 532.801 962 526.387V459.613C962 453.199 967.117 448 973.429 448ZM984.857 468.323C983.279 468.323 982 469.622 982 471.226V514.774C982 516.378 983.279 517.677 984.857 517.677H1044.14C1045.72 517.677 1047 516.378 1047 514.774V471.226C1047 469.622 1045.72 468.323 1044.14 468.323H984.857Z" fill="black"/>
<path d="M0 538L1262 538" stroke="black" stroke-width="2"/>
<rect x="1007" y="93" width="151" height="82" stroke="#626262" stroke-width="2"/>
<rect x="175" y="28" width="91" height="59" stroke="#626262" stroke-width="2"/>
<path d="M1021 124H1136" stroke="#626262" stroke-width="2"/>
<path d="M183 50H253" stroke="#626262" stroke-width="2"/>
<path d="M1021 147H1106" stroke="#626262" stroke-width="2"/>
<path d="M183 67H235" stroke="#626262" stroke-width="2"/>
<path d="M1010.5 231C1019 236 1039.3 244.9 1052.5 240.5C1069 235 1038 178.5 1043.5 222.5C1047.9 257.7 1085.67 263.167 1104 261.5" stroke="#DDC5B8" stroke-width="2"/>
<path d="M36 34C40.6845 45.5312 47.8717 62.2119 62.4101 62.8961C70.1779 63.2616 77.6478 61.777 82.532 55.3503C83.2855 54.359 83.9728 51.8011 83.2925 50.5538C82.5429 49.1797 81.4271 47.637 79.5 47C76.5733 46.0326 72.1493 49.8753 72.1493 49.8753C72.1493 49.8753 65.8818 56.8492 64.1356 60.6148C59.7071 70.165 62.463 82.1195 72.1493 86.3522C76.8796 88.4192 83.0267 90.119 88.2645 89.7448C92.5971 89.4354 96.3965 87.744 100.519 86.6447C102.71 86.0603 108.512 81.3802 103.385 81.3802C96.1548 81.3802 91.1573 87.0443 89.2881 93.8979C87.6819 99.7872 90.1186 103.037 95.079 105.831C99.4681 108.302 103.548 110.473 108.562 111.505C116.666 113.172 124.23 112.099 132.34 111.388" stroke="#DDC5B8" stroke-width="3" stroke-linecap="round"/>
<circle cx="1173" cy="25" r="9" stroke="#DDC5B8" stroke-width="2"/>
<circle cx="290" cy="10" r="9" stroke="#DDC5B8" stroke-width="2"/>
<circle cx="217" cy="131" r="5" stroke="#DDC5B8" stroke-width="2"/>
</svg>
